<svg xmlns="http://www.w3.org/2000/svg" xmlns:xlink="http://www.w3.org/1999/xlink" width="0" height="0" style="position:absolute">
	
		<symbol id="icon-arrow-down" viewBox="0 0 21 21">
			<path d="M14.934 8.51a.308.308 0 0 0-.09-.205l-.446-.446a.307.307 0 0 0-.205-.09.308.308 0 0 0-.206.09l-3.509 3.509L6.97 7.859a.308.308 0 0 0-.205-.09.29.29 0 0 0-.205.09l-.447.446a.308.308 0 0 0-.089.206c0 .071.036.152.09.205l4.16 4.16c.054.054.134.09.205.09a.308.308 0 0 0 .206-.09l4.16-4.16a.308.308 0 0 0 .09-.205z"></path>
		</symbol>
	
		<symbol id="icon-email" viewBox="0 0 21 20">
			<path d="M16.75 14.85a.275.275 0 0 1-.267.267H4.16a.275.275 0 0 1-.268-.268V8.421c.176.2.369.385.578.552a112.81 112.81 0 0 1 3.566 2.83c.627.527 1.406 1.171 2.276 1.171h.017c.87 0 1.65-.644 2.277-1.172a114.783 114.783 0 0 1 3.566-2.829c.209-.167.402-.352.577-.552v6.428zm0-8.798c0 .711-.686 1.64-1.23 2.067a517.56 517.56 0 0 0-3.357 2.654c-.443.36-1.247 1.13-1.833 1.13h-.017c-.586 0-1.39-.77-1.833-1.13a518.102 518.102 0 0 0-3.356-2.654c-.754-.594-1.23-1.423-1.23-2.377 0-.142.125-.268.267-.268h12.322c.318 0 .267.368.267.578zm1.072-.31c0-.737-.603-1.34-1.34-1.34H4.163c-.738 0-1.34.603-1.34 1.34v9.107c0 .737.602 1.34 1.34 1.34h12.32c.737 0 1.34-.603 1.34-1.34V5.742z"></path>
		</symbol>
	
		<symbol id="icon-file" viewBox="0 0 17.1 20">
			<style>.st0{fill:#272733}</style><path class="st0" d="M16.4 4.2L12.9.7c-.4-.4-1.2-.7-1.8-.7h-10C.5 0 0 .5 0 1.1V19c0 .5.5 1 1.1 1h15c.6 0 1.1-.5 1.1-1.1V6.1c-.1-.6-.4-1.4-.8-1.9zm-5-2.7c.2.1.4.2.5.2l3.5 3.5c.1.1.2.3.2.5h-4.2V1.5zm4.3 17.1H1.4V1.4H10V6c0 .6.5 1.1 1.1 1.1h4.6v11.5zM4.3 8.9v.7c0 .2.2.4.4.4h7.9c.2 0 .4-.2.4-.4v-.7c0-.2-.2-.4-.4-.4h-8c-.2.1-.3.2-.3.4zm8.2 2.5H4.6c-.2 0-.4.2-.4.4v.7c0 .2.2.4.4.4h7.9c.2 0 .4-.2.4-.4v-.7c0-.2-.2-.4-.4-.4zm0 2.9H4.6c-.2 0-.4.2-.4.4v.7c0 .2.2.4.4.4h7.9c.2 0 .4-.2.4-.4v-.7c0-.3-.2-.4-.4-.4z"></path>
		</symbol>
	
</svg>
